<svg xmlns="http://www.w3.org/2000/svg" viewBox="0 0 512 512" role="img" aria-label="Calendar availability app icon">
  <defs>
    <linearGradient id="bg" x1="80" y1="44" x2="432" y2="468" gradientUnits="userSpaceOnUse">
      <stop stop-color="#111827"/>
      <stop offset="1" stop-color="#020617"/>
    </linearGradient>
    <linearGradient id="gold" x1="142" y1="82" x2="374" y2="430" gradientUnits="userSpaceOnUse">
      <stop stop-color="#ffe6a3"/>
      <stop offset="0.52" stop-color="#cda85b"/>
      <stop offset="1" stop-color="#8a642b"/>
    </linearGradient>
    <filter id="shadow" x="-20%" y="-20%" width="140%" height="140%">
      <feDropShadow dx="0" dy="20" stdDeviation="18" flood-color="#020617" flood-opacity="0.42"/>
    </filter>
  </defs>

  <rect width="512" height="512" rx="112" fill="url(#bg)"/>

  <g filter="url(#shadow)">
    <rect x="104" y="112" width="304" height="300" rx="42" fill="#fffaf0"/>
    <path d="M104 154a42 42 0 0 1 42-42h220a42 42 0 0 1 42 42v54H104z" fill="url(#gold)"/>
    <path d="M166 88v60M346 88v60" stroke="#fff7dc" stroke-width="28" stroke-linecap="round"/>
    <path d="M104 208h304" stroke="#e8d6ac" stroke-width="10"/>

    <g fill="#d8be7a">
      <rect x="144" y="246" width="50" height="50" rx="13"/>
      <rect x="231" y="246" width="50" height="50" rx="13"/>
      <rect x="318" y="246" width="50" height="50" rx="13"/>
      <rect x="144" y="326" width="50" height="50" rx="13"/>
      <rect x="231" y="326" width="50" height="50" rx="13"/>
    </g>

    <rect x="318" y="326" width="50" height="50" rx="13" fill="#16a34a"/>
    <path d="m330 351 13 13 27-31" fill="none" stroke="#ecfdf5" stroke-width="12" stroke-linecap="round" stroke-linejoin="round"/>
  </g>

  <path d="M132 430h248" stroke="#f5d98d" stroke-width="18" stroke-linecap="round" opacity="0.9"/>
</svg>
